{
.appVersion = "895";
customParameters = (
{
name = panose;
value = (
0,
0,
5,
0,
0,
0,
0,
0,
0,
0
);
},
{
name = unicodeRanges;
value = (
0,
1,
2,
32
);
},
{
name = codePageRanges;
value = (
1252,
1250,
1254,
1257
);
}
);
date = "2014-02-19 00:50:42 +0000";
familyName = XMUI;
fontMaster = (
{
ascender = 700;
capHeight = 600;
descender = -350;
horizontalStems = (
77
);
id = "09A7EFDD-D551-40CA-9748-44C177238FC2";
weightValue = 475;
widthValue = 5;
xHeight = 300;
}
);
glyphs = (
{
glyphname = zero;
lastChange = "2016-09-19 08:16:35 +0000";
layers = (
{
layerId = "09A7EFDD-D551-40CA-9748-44C177238FC2";
paths = (
{
closed = 1;
nodes = (
"171 595 OFFCURVE",
"61 447 OFFCURVE",
"61 240 CURVE SMOOTH",
"61 33 OFFCURVE",
"171 -115 OFFCURVE",
"359 -115 CURVE SMOOTH",
"548 -115 OFFCURVE",
"657 33 OFFCURVE",
"657 240 CURVE SMOOTH",
"657 447 OFFCURVE",
"548 595 OFFCURVE",
"359 595 CURVE SMOOTH"
);
},
{
closed = 1;
nodes = (
"227 -29 OFFCURVE",
"157 85 OFFCURVE",
"157 240 CURVE SMOOTH",
"157 395 OFFCURVE",
"227 509 OFFCURVE",
"359 509 CURVE SMOOTH",
"491 509 OFFCURVE",
"561 395 OFFCURVE",
"561 240 CURVE SMOOTH",
"561 85 OFFCURVE",
"491 -29 OFFCURVE",
"359 -29 CURVE SMOOTH"
);
}
);
width = 718;
}
);
leftKerningGroup = C;
note = zero;
rightKerningGroup = C;
unicode = 0030;
},
{
glyphname = one;
lastChange = "2016-09-19 08:16:45 +0000";
layers = (
{
layerId = "09A7EFDD-D551-40CA-9748-44C177238FC2";
paths = (
{
closed = 1;
nodes = (
"500 -21 LINE",
"327 -21 LINE",
"327 580 LINE",
"273 580 LINE",
"56 500 LINE",
"56 418 LINE",
"232 476 LINE",
"232 -21 LINE",
"45 -21 LINE",
"45 -100 LINE",
"500 -100 LINE"
);
}
);
width = 511;
}
);
leftKerningGroup = one;
note = one;
rightKerningGroup = one;
unicode = 0031;
},
{
glyphname = two;
lastChange = "2016-09-19 08:16:53 +0000";
layers = (
{
layerId = "09A7EFDD-D551-40CA-9748-44C177238FC2";
paths = (
{
closed = 1;
nodes = (
"510 -21 LINE",
"199 -21 LINE",
"353 150 LINE SMOOTH",
"448 255 OFFCURVE",
"499 313 OFFCURVE",
"499 392 CURVE SMOOTH",
"499 503 OFFCURVE",
"414 595 OFFCURVE",
"268 595 CURVE SMOOTH",
"130 595 OFFCURVE",
"43 511 OFFCURVE",
"38 387 CURVE",
"132 387 LINE",
"141 464 OFFCURVE",
"194 513 OFFCURVE",
"272 513 CURVE SMOOTH",
"359 513 OFFCURVE",
"404 456 OFFCURVE",
"404 393 CURVE SMOOTH",
"404 327 OFFCURVE",
"350 276 OFFCURVE",
"273 190 CURVE SMOOTH",
"58 -50 LINE",
"58 -100 LINE",
"510 -100 LINE"
);
}
);
width = 560;
}
);
leftKerningGroup = two;
note = two;
rightKerningGroup = two;
unicode = 0032;
},
{
glyphname = three;
lastChange = "2016-09-19 08:16:58 +0000";
layers = (
{
layerId = "09A7EFDD-D551-40CA-9748-44C177238FC2";
paths = (
{
closed = 1;
nodes = (
"468 275 OFFCURVE",
"498 328 OFFCURVE",
"498 395 CURVE SMOOTH",
"498 511 OFFCURVE",
"413 592 OFFCURVE",
"281 592 CURVE SMOOTH",
"157 592 OFFCURVE",
"70 518 OFFCURVE",
"60 406 CURVE",
"153 406 LINE",
"161 469 OFFCURVE",
"212 511 OFFCURVE",
"282 511 CURVE SMOOTH",
"359 511 OFFCURVE",
"409 465 OFFCURVE",
"409 394 CURVE SMOOTH",
"409 326 OFFCURVE",
"359 279 OFFCURVE",
"283 279 CURVE SMOOTH",
"229 279 LINE",
"229 202 LINE",
"283 202 LINE SMOOTH",
"372 202 OFFCURVE",
"431 156 OFFCURVE",
"431 85 CURVE SMOOTH",
"431 16 OFFCURVE",
"373 -32 OFFCURVE",
"287 -32 CURVE SMOOTH",
"196 -32 OFFCURVE",
"150 10 OFFCURVE",
"136 74 CURVE",
"44 74 LINE",
"59 -39 OFFCURVE",
"141 -114 OFFCURVE",
"287 -114 CURVE SMOOTH",
"427 -114 OFFCURVE",
"520 -30 OFFCURVE",
"520 85 CURVE SMOOTH",
"520 159 OFFCURVE",
"482 214 OFFCURVE",
"415 244 CURVE"
);
}
);
width = 562;
}
);
leftKerningGroup = three;
note = three;
rightKerningGroup = three;
unicode = 0033;
},
{
glyphname = four;
lastChange = "2016-09-19 08:17:02 +0000";
layers = (
{
layerId = "09A7EFDD-D551-40CA-9748-44C177238FC2";
paths = (
{
closed = 1;
nodes = (
"597 44 LINE",
"597 126 LINE",
"495 126 LINE",
"495 337 LINE",
"404 337 LINE",
"404 126 LINE",
"156 126 LINE",
"343 580 LINE",
"246 580 LINE",
"44 103 LINE",
"44 44 LINE",
"404 44 LINE",
"404 -100 LINE",
"495 -100 LINE",
"495 44 LINE"
);
}
);
width = 641;
}
);
leftKerningGroup = four;
note = four;
rightKerningGroup = four;
unicode = 0034;
},
{
glyphname = five;
lastChange = "2016-09-19 08:17:07 +0000";
layers = (
{
layerId = "09A7EFDD-D551-40CA-9748-44C177238FC2";
paths = (
{
closed = 1;
nodes = (
"181 326 LINE",
"181 495 LINE",
"502 495 LINE",
"502 580 LINE",
"94 580 LINE",
"93 243 LINE",
"289 244 LINE SMOOTH",
"385 244 OFFCURVE",
"445 189 OFFCURVE",
"445 111 CURVE SMOOTH",
"445 30 OFFCURVE",
"382 -33 OFFCURVE",
"292 -33 CURVE SMOOTH",
"201 -33 OFFCURVE",
"149 12 OFFCURVE",
"131 83 CURVE",
"38 83 LINE",
"59 -37 OFFCURVE",
"147 -115 OFFCURVE",
"292 -115 CURVE SMOOTH",
"436 -115 OFFCURVE",
"534 -16 OFFCURVE",
"534 114 CURVE SMOOTH",
"534 238 OFFCURVE",
"441 326 OFFCURVE",
"300 326 CURVE SMOOTH"
);
}
);
width = 588;
}
);
leftKerningGroup = five;
note = five;
rightKerningGroup = five;
unicode = 0035;
},
{
glyphname = six;
lastChange = "2016-09-19 08:17:12 +0000";
layers = (
{
layerId = "09A7EFDD-D551-40CA-9748-44C177238FC2";
paths = (
{
closed = 1;
nodes = (
"296 359 OFFCURVE",
"284 358 OFFCURVE",
"273 357 CURVE",
"423 580 LINE",
"311 580 LINE",
"110 285 LINE SMOOTH",
"73 230 OFFCURVE",
"52 180 OFFCURVE",
"52 122 CURVE SMOOTH",
"52 -12 OFFCURVE",
"158 -115 OFFCURVE",
"308 -115 CURVE SMOOTH",
"457 -115 OFFCURVE",
"564 -13 OFFCURVE",
"564 125 CURVE SMOOTH",
"564 260 OFFCURVE",
"457 359 OFFCURVE",
"309 359 CURVE SMOOTH"
);
},
{
closed = 1;
nodes = (
"213 -38 OFFCURVE",
"145 31 OFFCURVE",
"145 118 CURVE SMOOTH",
"145 158 OFFCURVE",
"158 191 OFFCURVE",
"188 231 CURVE SMOOTH",
"191 235 LINE",
"220 261 OFFCURVE",
"261 275 OFFCURVE",
"308 275 CURVE SMOOTH",
"403 275 OFFCURVE",
"471 207 OFFCURVE",
"471 120 CURVE SMOOTH",
"471 31 OFFCURVE",
"403 -38 OFFCURVE",
"308 -38 CURVE SMOOTH"
);
}
);
width = 616;
}
);
leftKerningGroup = six;
note = six;
rightKerningGroup = six;
unicode = 0036;
},
{
glyphname = seven;
lastChange = "2016-09-19 08:17:17 +0000";
layers = (
{
layerId = "09A7EFDD-D551-40CA-9748-44C177238FC2";
paths = (
{
closed = 1;
nodes = (
"482 580 LINE",
"14 580 LINE",
"14 491 LINE",
"363 491 LINE",
"76 -100 LINE",
"182 -100 LINE",
"482 522 LINE"
);
}
);
width = 503;
}
);
leftKerningGroup = seven;
note = seven;
rightKerningGroup = seven;
unicode = 0037;
},
{
glyphname = eight;
lastChange = "2016-09-19 08:17:22 +0000";
layers = (
{
layerId = "09A7EFDD-D551-40CA-9748-44C177238FC2";
paths = (
{
closed = 1;
nodes = (
"508 288 OFFCURVE",
"543 339 OFFCURVE",
"543 407 CURVE SMOOTH",
"543 516 OFFCURVE",
"447 595 OFFCURVE",
"312 595 CURVE SMOOTH",
"177 595 OFFCURVE",
"81 516 OFFCURVE",
"81 407 CURVE SMOOTH",
"81 339 OFFCURVE",
"116 288 OFFCURVE",
"175 259 CURVE",
"97 228 OFFCURVE",
"52 167 OFFCURVE",
"52 89 CURVE SMOOTH",
"52 -31 OFFCURVE",
"153 -115 OFFCURVE",
"312 -115 CURVE SMOOTH",
"471 -115 OFFCURVE",
"572 -31 OFFCURVE",
"572 89 CURVE SMOOTH",
"572 167 OFFCURVE",
"527 228 OFFCURVE",
"449 259 CURVE"
);
},
{
closed = 1;
nodes = (
"393 520 OFFCURVE",
"450 467 OFFCURVE",
"450 402 CURVE SMOOTH",
"450 333 OFFCURVE",
"393 285 OFFCURVE",
"312 285 CURVE SMOOTH",
"231 285 OFFCURVE",
"174 333 OFFCURVE",
"174 402 CURVE SMOOTH",
"174 468 OFFCURVE",
"231 520 OFFCURVE",
"312 520 CURVE SMOOTH"
);
},
{
closed = 1;
nodes = (
"219 -36 OFFCURVE",
"156 20 OFFCURVE",
"156 95 CURVE SMOOTH",
"156 167 OFFCURVE",
"219 220 OFFCURVE",
"312 220 CURVE SMOOTH",
"404 220 OFFCURVE",
"468 167 OFFCURVE",
"468 95 CURVE SMOOTH",
"468 21 OFFCURVE",
"404 -36 OFFCURVE",
"312 -36 CURVE SMOOTH"
);
}
);
width = 624;
}
);
leftKerningGroup = eight;
note = eight;
rightKerningGroup = eight;
unicode = 0038;
},
{
glyphname = nine;
lastChange = "2016-09-19 08:17:28 +0000";
layers = (
{
layerId = "09A7EFDD-D551-40CA-9748-44C177238FC2";
paths = (
{
closed = 1;
nodes = (
"159 595 OFFCURVE",
"52 493 OFFCURVE",
"52 355 CURVE SMOOTH",
"52 220 OFFCURVE",
"159 122 OFFCURVE",
"307 122 CURVE SMOOTH",
"320 122 OFFCURVE",
"332 123 OFFCURVE",
"344 124 CURVE",
"193 -100 LINE",
"305 -100 LINE",
"506 196 LINE SMOOTH",
"543 250 OFFCURVE",
"564 300 OFFCURVE",
"564 358 CURVE SMOOTH",
"564 492 OFFCURVE",
"458 595 OFFCURVE",
"308 595 CURVE SMOOTH"
);
},
{
closed = 1;
nodes = (
"425 245 LINE",
"396 220 OFFCURVE",
"355 205 OFFCURVE",
"308 205 CURVE SMOOTH",
"213 205 OFFCURVE",
"145 273 OFFCURVE",
"145 360 CURVE SMOOTH",
"145 449 OFFCURVE",
"213 518 OFFCURVE",
"308 518 CURVE SMOOTH",
"403 518 OFFCURVE",
"471 449 OFFCURVE",
"471 362 CURVE SMOOTH",
"471 322 OFFCURVE",
"458 289 OFFCURVE",
"428 249 CURVE SMOOTH"
);
}
);
width = 616;
}
);
leftKerningGroup = nine;
note = nine;
rightKerningGroup = nine;
unicode = 0039;
},
{
glyphname = zero.tf;
lastChange = "2016-09-19 07:36:37 +0000";
layers = (
{
layerId = "09A7EFDD-D551-40CA-9748-44C177238FC2";
paths = (
{
closed = 1;
nodes = (
"126 695 OFFCURVE",
"23 547 OFFCURVE",
"23 340 CURVE SMOOTH",
"23 133 OFFCURVE",
"126 -15 OFFCURVE",
"307 -15 CURVE SMOOTH",
"489 -15 OFFCURVE",
"592 133 OFFCURVE",
"592 340 CURVE SMOOTH",
"592 547 OFFCURVE",
"489 695 OFFCURVE",
"307 695 CURVE SMOOTH"
);
},
{
closed = 1;
nodes = (
"182 71 OFFCURVE",
"119 185 OFFCURVE",
"119 340 CURVE SMOOTH",
"119 495 OFFCURVE",
"182 609 OFFCURVE",
"307 609 CURVE SMOOTH",
"432 609 OFFCURVE",
"495 495 OFFCURVE",
"495 340 CURVE SMOOTH",
"495 185 OFFCURVE",
"432 71 OFFCURVE",
"307 71 CURVE SMOOTH"
);
}
);
width = 619;
}
);
note = zero.tf;
rightKerningGroup = zero.osf;
},
{
glyphname = one.tf;
lastChange = "2016-09-19 07:36:37 +0000";
layers = (
{
layerId = "09A7EFDD-D551-40CA-9748-44C177238FC2";
paths = (
{
closed = 1;
nodes = (
"567 79 LINE",
"378 79 LINE",
"378 680 LINE",
"324 680 LINE",
"107 600 LINE",
"107 518 LINE",
"283 576 LINE",
"283 79 LINE",
"72 79 LINE",
"72 0 LINE",
"567 0 LINE"
);
}
);
width = 619;
}
);
note = one.tf;
rightKerningGroup = zero.osf;
},
{
glyphname = two.tf;
lastChange = "2016-09-19 07:36:37 +0000";
layers = (
{
layerId = "09A7EFDD-D551-40CA-9748-44C177238FC2";
paths = (
{
closed = 1;
nodes = (
"540 79 LINE",
"229 79 LINE",
"383 250 LINE SMOOTH",
"479 354 OFFCURVE",
"529 413 OFFCURVE",
"529 492 CURVE SMOOTH",
"529 603 OFFCURVE",
"444 695 OFFCURVE",
"298 695 CURVE SMOOTH",
"160 695 OFFCURVE",
"73 611 OFFCURVE",
"68 487 CURVE",
"162 487 LINE",
"171 564 OFFCURVE",
"224 613 OFFCURVE",
"302 613 CURVE SMOOTH",
"389 613 OFFCURVE",
"434 556 OFFCURVE",
"434 493 CURVE SMOOTH",
"434 427 OFFCURVE",
"381 375 OFFCURVE",
"303 290 CURVE SMOOTH",
"88 50 LINE",
"88 0 LINE",
"540 0 LINE"
);
}
);
width = 619;
}
);
note = two.tf;
rightKerningGroup = zero.osf;
},
{
glyphname = three.tf;
lastChange = "2016-09-19 07:36:37 +0000";
layers = (
{
layerId = "09A7EFDD-D551-40CA-9748-44C177238FC2";
paths = (
{
closed = 1;
nodes = (
"500 375 OFFCURVE",
"530 428 OFFCURVE",
"530 495 CURVE SMOOTH",
"530 611 OFFCURVE",
"445 692 OFFCURVE",
"313 692 CURVE SMOOTH",
"189 692 OFFCURVE",
"102 618 OFFCURVE",
"92 506 CURVE",
"185 506 LINE",
"193 569 OFFCURVE",
"244 611 OFFCURVE",
"314 611 CURVE SMOOTH",
"391 611 OFFCURVE",
"441 565 OFFCURVE",
"441 494 CURVE SMOOTH",
"441 426 OFFCURVE",
"391 379 OFFCURVE",
"315 379 CURVE SMOOTH",
"261 379 LINE",
"261 302 LINE",
"315 302 LINE SMOOTH",
"404 302 OFFCURVE",
"463 256 OFFCURVE",
"463 185 CURVE SMOOTH",
"463 116 OFFCURVE",
"405 68 OFFCURVE",
"319 68 CURVE SMOOTH",
"228 68 OFFCURVE",
"182 110 OFFCURVE",
"168 174 CURVE",
"76 174 LINE",
"91 61 OFFCURVE",
"173 -14 OFFCURVE",
"319 -14 CURVE SMOOTH",
"459 -14 OFFCURVE",
"552 70 OFFCURVE",
"552 185 CURVE SMOOTH",
"552 259 OFFCURVE",
"514 314 OFFCURVE",
"447 344 CURVE"
);
}
);
width = 619;
}
);
note = three.tf;
rightKerningGroup = zero.osf;
},
{
glyphname = four.tf;
lastChange = "2016-09-19 07:36:37 +0000";
layers = (
{
layerId = "09A7EFDD-D551-40CA-9748-44C177238FC2";
paths = (
{
closed = 1;
nodes = (
"579 144 LINE",
"579 226 LINE",
"477 226 LINE",
"477 437 LINE",
"386 437 LINE",
"386 226 LINE",
"138 226 LINE",
"325 680 LINE",
"228 680 LINE",
"26 203 LINE",
"26 144 LINE",
"386 144 LINE",
"386 0 LINE",
"477 0 LINE",
"477 144 LINE"
);
}
);
width = 619;
}
);
note = four.tf;
rightKerningGroup = zero.osf;
},
{
glyphname = five.tf;
lastChange = "2016-09-19 07:36:37 +0000";
layers = (
{
layerId = "09A7EFDD-D551-40CA-9748-44C177238FC2";
paths = (
{
closed = 1;
nodes = (
"183 426 LINE",
"183 595 LINE",
"504 595 LINE",
"504 680 LINE",
"96 680 LINE",
"95 343 LINE",
"291 344 LINE SMOOTH",
"387 344 OFFCURVE",
"447 289 OFFCURVE",
"447 211 CURVE SMOOTH",
"447 130 OFFCURVE",
"384 67 OFFCURVE",
"294 67 CURVE SMOOTH",
"203 67 OFFCURVE",
"151 112 OFFCURVE",
"133 183 CURVE",
"40 183 LINE",
"61 63 OFFCURVE",
"149 -15 OFFCURVE",
"294 -15 CURVE SMOOTH",
"438 -15 OFFCURVE",
"536 84 OFFCURVE",
"536 214 CURVE SMOOTH",
"536 338 OFFCURVE",
"443 426 OFFCURVE",
"302 426 CURVE SMOOTH"
);
}
);
width = 619;
}
);
note = five.tf;
rightKerningGroup = zero.osf;
},
{
glyphname = six.tf;
lastChange = "2016-09-19 07:36:37 +0000";
layers = (
{
layerId = "09A7EFDD-D551-40CA-9748-44C177238FC2";
paths = (
{
closed = 1;
nodes = (
"304 459 OFFCURVE",
"292 458 OFFCURVE",
"281 457 CURVE",
"431 680 LINE",
"319 680 LINE",
"118 385 LINE SMOOTH",
"82 329 OFFCURVE",
"60 280 OFFCURVE",
"60 222 CURVE SMOOTH",
"60 88 OFFCURVE",
"166 -15 OFFCURVE",
"316 -15 CURVE SMOOTH",
"465 -15 OFFCURVE",
"572 87 OFFCURVE",
"572 225 CURVE SMOOTH",
"572 360 OFFCURVE",
"465 459 OFFCURVE",
"317 459 CURVE SMOOTH"
);
},
{
closed = 1;
nodes = (
"221 62 OFFCURVE",
"153 131 OFFCURVE",
"153 218 CURVE SMOOTH",
"153 258 OFFCURVE",
"166 291 OFFCURVE",
"196 331 CURVE SMOOTH",
"199 335 LINE",
"228 361 OFFCURVE",
"269 375 OFFCURVE",
"316 375 CURVE SMOOTH",
"411 375 OFFCURVE",
"479 307 OFFCURVE",
"479 220 CURVE SMOOTH",
"479 131 OFFCURVE",
"411 62 OFFCURVE",
"316 62 CURVE SMOOTH"
);
}
);
width = 619;
}
);
note = six.tf;
rightKerningGroup = zero.osf;
},
{
glyphname = seven.tf;
lastChange = "2016-09-19 07:36:37 +0000";
layers = (
{
layerId = "09A7EFDD-D551-40CA-9748-44C177238FC2";
paths = (
{
closed = 1;
nodes = (
"550 680 LINE",
"81 680 LINE",
"81 591 LINE",
"430 591 LINE",
"144 0 LINE",
"250 0 LINE",
"550 622 LINE"
);
}
);
width = 619;
}
);
note = seven.tf;
rightKerningGroup = zero.osf;
},
{
glyphname = eight.tf;
lastChange = "2016-09-19 07:36:37 +0000";
layers = (
{
layerId = "09A7EFDD-D551-40CA-9748-44C177238FC2";
paths = (
{
closed = 1;
nodes = (
"511 388 OFFCURVE",
"546 439 OFFCURVE",
"546 507 CURVE SMOOTH",
"546 616 OFFCURVE",
"450 695 OFFCURVE",
"314 695 CURVE SMOOTH",
"180 695 OFFCURVE",
"83 616 OFFCURVE",
"83 507 CURVE SMOOTH",
"83 439 OFFCURVE",
"119 388 OFFCURVE",
"178 359 CURVE",
"100 328 OFFCURVE",
"55 267 OFFCURVE",
"55 189 CURVE SMOOTH",
"55 69 OFFCURVE",
"156 -15 OFFCURVE",
"314 -15 CURVE SMOOTH",
"474 -15 OFFCURVE",
"575 69 OFFCURVE",
"575 189 CURVE SMOOTH",
"575 267 OFFCURVE",
"530 328 OFFCURVE",
"452 359 CURVE"
);
},
{
closed = 1;
nodes = (
"395 620 OFFCURVE",
"453 567 OFFCURVE",
"453 502 CURVE SMOOTH",
"453 433 OFFCURVE",
"395 385 OFFCURVE",
"314 385 CURVE SMOOTH",
"233 385 OFFCURVE",
"176 433 OFFCURVE",
"176 502 CURVE SMOOTH",
"176 568 OFFCURVE",
"233 620 OFFCURVE",
"314 620 CURVE SMOOTH"
);
},
{
closed = 1;
nodes = (
"222 64 OFFCURVE",
"159 120 OFFCURVE",
"159 195 CURVE SMOOTH",
"159 267 OFFCURVE",
"222 320 OFFCURVE",
"314 320 CURVE SMOOTH",
"407 320 OFFCURVE",
"471 267 OFFCURVE",
"471 195 CURVE SMOOTH",
"471 121 OFFCURVE",
"407 64 OFFCURVE",
"314 64 CURVE SMOOTH"
);
}
);
width = 619;
}
);
note = eight.tf;
rightKerningGroup = zero.osf;
},
{
glyphname = nine.tf;
lastChange = "2016-09-19 07:36:37 +0000";
layers = (
{
layerId = "09A7EFDD-D551-40CA-9748-44C177238FC2";
paths = (
{
closed = 1;
nodes = (
"145 695 OFFCURVE",
"38 593 OFFCURVE",
"38 455 CURVE SMOOTH",
"38 320 OFFCURVE",
"145 222 OFFCURVE",
"293 222 CURVE SMOOTH",
"306 222 OFFCURVE",
"318 223 OFFCURVE",
"330 224 CURVE",
"179 0 LINE",
"291 0 LINE",
"492 296 LINE SMOOTH",
"528 351 OFFCURVE",
"550 400 OFFCURVE",
"550 458 CURVE SMOOTH",
"550 592 OFFCURVE",
"444 695 OFFCURVE",
"294 695 CURVE SMOOTH"
);
},
{
closed = 1;
nodes = (
"411 345 LINE",
"382 320 OFFCURVE",
"341 305 OFFCURVE",
"294 305 CURVE SMOOTH",
"199 305 OFFCURVE",
"131 373 OFFCURVE",
"131 460 CURVE SMOOTH",
"131 549 OFFCURVE",
"199 618 OFFCURVE",
"294 618 CURVE SMOOTH",
"389 618 OFFCURVE",
"457 549 OFFCURVE",
"457 462 CURVE SMOOTH",
"457 422 OFFCURVE",
"444 389 OFFCURVE",
"414 349 CURVE SMOOTH"
);
}
);
width = 593;
}
);
note = nine.tf;
rightKerningGroup = zero.osf;
},
{
glyphname = backslash;
lastChange = "2016-09-19 08:17:59 +0000";
layers = (
{
layerId = "09A7EFDD-D551-40CA-9748-44C177238FC2";
paths = (
{
closed = 1;
nodes = (
"116 630 LINE",
"28 630 LINE",
"288 -260 LINE",
"376 -260 LINE"
);
}
);
width = 404;
}
);
leftKerningGroup = backslash;
note = backslash;
rightKerningGroup = zero.osf;
unicode = 005C;
},
{
glyphname = bullet;
lastChange = "2016-09-19 08:18:24 +0000";
layers = (
{
layerId = "09A7EFDD-D551-40CA-9748-44C177238FC2";
paths = (
{
closed = 1;
nodes = (
"228 75 OFFCURVE",
"285 132 OFFCURVE",
"285 197 CURVE SMOOTH",
"285 263 OFFCURVE",
"228 319 OFFCURVE",
"162 319 CURVE SMOOTH",
"96 319 OFFCURVE",
"39 263 OFFCURVE",
"39 197 CURVE SMOOTH",
"39 132 OFFCURVE",
"96 75 OFFCURVE",
"162 75 CURVE SMOOTH"
);
}
);
width = 324;
}
);
leftKerningGroup = bullet;
note = bullet;
rightKerningGroup = bullet;
unicode = 2022;
},
{
glyphname = colon;
lastChange = "2016-09-19 08:17:34 +0000";
layers = (
{
layerId = "09A7EFDD-D551-40CA-9748-44C177238FC2";
paths = (
{
closed = 1;
nodes = (
"129 266 OFFCURVE",
"156 291 OFFCURVE",
"156 324 CURVE SMOOTH",
"156 356 OFFCURVE",
"129 381 OFFCURVE",
"96 381 CURVE SMOOTH",
"64 381 OFFCURVE",
"37 356 OFFCURVE",
"37 324 CURVE SMOOTH",
"37 291 OFFCURVE",
"64 266 OFFCURVE",
"96 266 CURVE SMOOTH"
);
},
{
closed = 1;
nodes = (
"129 -115 OFFCURVE",
"156 -90 OFFCURVE",
"156 -57 CURVE SMOOTH",
"156 -25 OFFCURVE",
"129 0 OFFCURVE",
"96 0 CURVE SMOOTH",
"64 0 OFFCURVE",
"37 -25 OFFCURVE",
"37 -57 CURVE SMOOTH",
"37 -90 OFFCURVE",
"64 -115 OFFCURVE",
"96 -115 CURVE SMOOTH"
);
}
);
width = 193;
}
);
note = colon;
rightKerningGroup = zero.osf;
unicode = 003A;
},
{
glyphname = comma;
lastChange = "2016-10-13 05:30:47 +0000";
layers = (
{
layerId = "09A7EFDD-D551-40CA-9748-44C177238FC2";
paths = (
{
closed = 1;
nodes = (
"37 -217 LINE",
"94 -217 LINE",
"180 -36 LINE",
"81 -36 LINE"
);
}
);
width = 204;
}
);
leftKerningGroup = comma;
note = comma;
rightKerningGroup = comma;
unicode = 002C;
},
{
glyphname = ellipsis;
lastChange = "2016-09-19 08:18:43 +0000";
layers = (
{
layerId = "09A7EFDD-D551-40CA-9748-44C177238FC2";
paths = (
{
closed = 1;
nodes = (
"129 -115 OFFCURVE",
"156 -90 OFFCURVE",
"156 -57 CURVE SMOOTH",
"156 -25 OFFCURVE",
"129 0 OFFCURVE",
"96 0 CURVE SMOOTH",
"64 0 OFFCURVE",
"37 -25 OFFCURVE",
"37 -57 CURVE SMOOTH",
"37 -90 OFFCURVE",
"64 -115 OFFCURVE",
"96 -115 CURVE SMOOTH"
);
},
{
closed = 1;
nodes = (
"338 -115 OFFCURVE",
"364 -90 OFFCURVE",
"364 -57 CURVE SMOOTH",
"364 -25 OFFCURVE",
"338 0 OFFCURVE",
"305 0 CURVE SMOOTH",
"272 0 OFFCURVE",
"246 -25 OFFCURVE",
"246 -57 CURVE SMOOTH",
"246 -90 OFFCURVE",
"272 -115 OFFCURVE",
"305 -115 CURVE SMOOTH"
);
},
{
closed = 1;
nodes = (
"552 -115 OFFCURVE",
"579 -90 OFFCURVE",
"579 -57 CURVE SMOOTH",
"579 -25 OFFCURVE",
"552 0 OFFCURVE",
"519 0 CURVE SMOOTH",
"487 0 OFFCURVE",
"460 -25 OFFCURVE",
"460 -57 CURVE SMOOTH",
"460 -90 OFFCURVE",
"487 -115 OFFCURVE",
"519 -115 CURVE SMOOTH"
);
}
);
width = 616;
}
);
leftKerningGroup = comma;
note = ellipsis;
rightKerningGroup = comma;
unicode = 2026;
},
{
glyphname = exclam;
lastChange = "2016-09-19 08:15:43 +0000";
layers = (
{
layerId = "09A7EFDD-D551-40CA-9748-44C177238FC2";
paths = (
{
closed = 1;
nodes = (
"176 97 LINE",
"184 580 LINE",
"87 580 LINE",
"94 97 LINE"
);
},
{
closed = 1;
nodes = (
"168 -109 OFFCURVE",
"195 -84 OFFCURVE",
"195 -51 CURVE SMOOTH",
"195 -19 OFFCURVE",
"168 6 OFFCURVE",
"135 6 CURVE SMOOTH",
"103 6 OFFCURVE",
"76 -19 OFFCURVE",
"76 -51 CURVE SMOOTH",
"76 -84 OFFCURVE",
"103 -109 OFFCURVE",
"135 -109 CURVE SMOOTH"
);
}
);
width = 271;
}
);
note = exclam;
rightKerningGroup = zero.osf;
unicode = 0021;
},
{
glyphname = period;
lastChange = "2016-09-19 08:16:14 +0000";
layers = (
{
layerId = "09A7EFDD-D551-40CA-9748-44C177238FC2";
paths = (
{
closed = 1;
nodes = (
"129 -115 OFFCURVE",
"156 -90 OFFCURVE",
"156 -57 CURVE SMOOTH",
"156 -25 OFFCURVE",
"129 0 OFFCURVE",
"96 0 CURVE SMOOTH",
"64 0 OFFCURVE",
"37 -25 OFFCURVE",
"37 -57 CURVE SMOOTH",
"37 -90 OFFCURVE",
"64 -115 OFFCURVE",
"96 -115 CURVE SMOOTH"
);
}
);
width = 193;
}
);
leftKerningGroup = comma;
note = period;
rightKerningGroup = comma;
unicode = 002E;
},
{
glyphname = slash;
lastChange = "2016-09-19 08:16:26 +0000";
layers = (
{
layerId = "09A7EFDD-D551-40CA-9748-44C177238FC2";
paths = (
{
closed = 1;
nodes = (
"136 -260 LINE",
"396 630 LINE",
"307 630 LINE",
"47 -260 LINE"
);
}
);
width = 404;
}
);
leftKerningGroup = slash;
note = slash;
rightKerningGroup = slash;
unicode = 002F;
},
{
glyphname = backslash.case;
lastChange = "2016-09-19 07:36:37 +0000";
layers = (
{
layerId = "09A7EFDD-D551-40CA-9748-44C177238FC2";
paths = (
{
closed = 1;
nodes = (
"24 730 LINE",
"252 -47 LINE",
"347 -47 LINE",
"120 730 LINE"
);
}
);
width = 372;
}
);
leftKerningGroup = backslash;
note = backslash.case;
rightKerningGroup = zero.osf;
},
{
glyphname = periodcentered.case;
lastChange = "2016-09-19 07:36:37 +0000";
layers = (
{
layerId = "09A7EFDD-D551-40CA-9748-44C177238FC2";
paths = (
{
closed = 1;
nodes = (
"129 275 OFFCURVE",
"156 299 OFFCURVE",
"156 332 CURVE SMOOTH",
"156 365 OFFCURVE",
"129 389 OFFCURVE",
"96 389 CURVE SMOOTH",
"64 389 OFFCURVE",
"37 365 OFFCURVE",
"37 332 CURVE SMOOTH",
"37 299 OFFCURVE",
"64 275 OFFCURVE",
"96 275 CURVE SMOOTH"
);
}
);
width = 193;
}
);
note = periodcentered.case;
rightKerningGroup = zero.osf;
},
{
glyphname = bullet.case;
lastChange = "2016-09-19 07:36:37 +0000";
layers = (
{
layerId = "09A7EFDD-D551-40CA-9748-44C177238FC2";
paths = (
{
closed = 1;
nodes = (
"228 210 OFFCURVE",
"285 267 OFFCURVE",
"285 332 CURVE SMOOTH",
"285 398 OFFCURVE",
"228 454 OFFCURVE",
"162 454 CURVE SMOOTH",
"96 454 OFFCURVE",
"39 398 OFFCURVE",
"39 332 CURVE SMOOTH",
"39 267 OFFCURVE",
"96 210 OFFCURVE",
"162 210 CURVE SMOOTH"
);
}
);
width = 324;
}
);
leftKerningGroup = bullet;
note = bullet.case;
rightKerningGroup = bullet;
},
{
glyphname = slash.case;
lastChange = "2016-09-19 07:36:37 +0000";
layers = (
{
layerId = "09A7EFDD-D551-40CA-9748-44C177238FC2";
paths = (
{
closed = 1;
nodes = (
"44 -47 LINE",
"139 -47 LINE",
"367 730 LINE",
"271 730 LINE"
);
}
);
width = 372;
}
);
leftKerningGroup = slash;
note = slash.case;
rightKerningGroup = slash;
},
{
glyphname = dollar;
lastChange = "2016-09-19 08:15:48 +0000";
layers = (
{
layerId = "09A7EFDD-D551-40CA-9748-44C177238FC2";
paths = (
{
closed = 1;
nodes = (
"310 295 LINE SMOOTH",
"229 311 OFFCURVE",
"185 342 OFFCURVE",
"185 399 CURVE SMOOTH",
"185 469 OFFCURVE",
"245 513 OFFCURVE",
"338 513 CURVE SMOOTH",
"442 513 OFFCURVE",
"494 463 OFFCURVE",
"508 387 CURVE",
"602 387 LINE",
"587 515 OFFCURVE",
"494 576 OFFCURVE",
"386 591 CURVE",
"386 710 LINE",
"303 710 LINE",
"303 594 LINE",
"171 584 OFFCURVE",
"84 505 OFFCURVE",
"84 392 CURVE SMOOTH",
"84 295 OFFCURVE",
"145 231 OFFCURVE",
"274 206 CURVE SMOOTH",
"389 184 LINE SMOOTH",
"472 168 OFFCURVE",
"503 130 OFFCURVE",
"503 83 CURVE SMOOTH",
"503 15 OFFCURVE",
"443 -29 OFFCURVE",
"348 -29 CURVE SMOOTH",
"234 -29 OFFCURVE",
"164 27 OFFCURVE",
"150 120 CURVE",
"55 120 LINE",
"68 -15 OFFCURVE",
"161 -99 OFFCURVE",
"303 -112 CURVE",
"303 -226 LINE",
"386 -226 LINE",
"386 -112 LINE",
"517 -98 OFFCURVE",
"601 -19 OFFCURVE",
"601 95 CURVE SMOOTH",
"601 198 OFFCURVE",
"529 251 OFFCURVE",
"404 276 CURVE SMOOTH"
);
}
);
width = 664;
}
);
leftKerningGroup = S;
note = dollar;
rightKerningGroup = zero.osf;
unicode = 0024;
},
{
glyphname = yen;
lastChange = "2016-09-19 08:18:34 +0000";
layers = (
{
layerId = "09A7EFDD-D551-40CA-9748-44C177238FC2";
paths = (
{
closed = 1;
nodes = (
"412 177 LINE",
"663 580 LINE",
"557 580 LINE",
"338 228 LINE",
"119 580 LINE",
"13 580 LINE",
"264 177 LINE",
"109 177 LINE",
"109 109 LINE",
"290 109 LINE",
"290 50 LINE",
"109 50 LINE",
"109 -19 LINE",
"290 -19 LINE",
"290 -100 LINE",
"387 -100 LINE",
"387 -19 LINE",
"568 -19 LINE",
"568 50 LINE",
"387 50 LINE",
"387 109 LINE",
"568 109 LINE",
"568 177 LINE"
);
}
);
width = 677;
}
);
leftKerningGroup = yen;
note = yen;
rightKerningGroup = yen;
unicode = 00A5;
},
{
glyphname = dollar.tf;
lastChange = "2016-09-19 07:36:37 +0000";
layers = (
{
layerId = "09A7EFDD-D551-40CA-9748-44C177238FC2";
paths = (
{
closed = 1;
nodes = (
"289 395 LINE SMOOTH",
"208 410 OFFCURVE",
"164 442 OFFCURVE",
"164 499 CURVE SMOOTH",
"164 569 OFFCURVE",
"224 613 OFFCURVE",
"317 613 CURVE SMOOTH",
"421 613 OFFCURVE",
"473 563 OFFCURVE",
"487 487 CURVE",
"581 487 LINE",
"566 615 OFFCURVE",
"473 676 OFFCURVE",
"365 691 CURVE",
"365 810 LINE",
"282 810 LINE",
"282 694 LINE",
"150 684 OFFCURVE",
"63 605 OFFCURVE",
"63 492 CURVE SMOOTH",
"63 395 OFFCURVE",
"124 330 OFFCURVE",
"253 306 CURVE SMOOTH",
"368 284 LINE SMOOTH",
"451 269 OFFCURVE",
"482 230 OFFCURVE",
"482 183 CURVE SMOOTH",
"482 115 OFFCURVE",
"422 71 OFFCURVE",
"327 71 CURVE SMOOTH",
"213 71 OFFCURVE",
"143 127 OFFCURVE",
"129 220 CURVE",
"34 220 LINE",
"47 85 OFFCURVE",
"140 1 OFFCURVE",
"282 -12 CURVE",
"282 -126 LINE",
"365 -126 LINE",
"365 -12 LINE",
"496 2 OFFCURVE",
"580 81 OFFCURVE",
"580 195 CURVE SMOOTH",
"580 298 OFFCURVE",
"508 352 OFFCURVE",
"383 376 CURVE SMOOTH"
);
}
);
width = 619;
}
);
note = dollar.tf;
rightKerningGroup = zero.osf;
},
{
glyphname = yen.tf;
lastChange = "2016-09-19 07:36:37 +0000";
layers = (
{
layerId = "09A7EFDD-D551-40CA-9748-44C177238FC2";
paths = (
{
closed = 1;
nodes = (
"379 277 LINE",
"590 680 LINE",
"484 680 LINE",
"308 338 LINE",
"132 680 LINE",
"26 680 LINE",
"238 277 LINE",
"79 277 LINE",
"79 209 LINE",
"260 209 LINE",
"260 150 LINE",
"79 150 LINE",
"79 81 LINE",
"260 81 LINE",
"260 0 LINE",
"357 0 LINE",
"357 81 LINE",
"538 81 LINE",
"538 150 LINE",
"357 150 LINE",
"357 209 LINE",
"538 209 LINE",
"538 277 LINE"
);
}
);
width = 619;
}
);
note = yen.tf;
rightKerningGroup = zero.osf;
},
{
glyphname = plus;
lastChange = "2016-09-19 08:16:04 +0000";
layers = (
{
layerId = "09A7EFDD-D551-40CA-9748-44C177238FC2";
paths = (
{
closed = 1;
nodes = (
"389 184 LINE",
"579 184 LINE",
"579 269 LINE",
"389 269 LINE",
"389 454 LINE",
"301 454 LINE",
"301 269 LINE",
"111 269 LINE",
"111 184 LINE",
"301 184 LINE",
"301 -1 LINE",
"389 -1 LINE"
);
}
);
width = 689;
}
);
leftKerningGroup = emdash;
note = plus;
rightKerningGroup = emdash;
unicode = 002B;
},
{
glyphname = minus;
lastChange = "2016-09-19 08:15:33 +0000";
layers = (
{
layerId = "09A7EFDD-D551-40CA-9748-44C177238FC2";
paths = (
{
closed = 1;
nodes = (
"111 269 LINE",
"111 184 LINE",
"578 184 LINE",
"578 269 LINE"
);
}
);
width = 689;
}
);
leftKerningGroup = emdash;
note = minus;
rightKerningGroup = emdash;
unicode = 2212;
},
{
glyphname = multiply;
lastChange = "2016-09-19 08:15:37 +0000";
layers = (
{
layerId = "09A7EFDD-D551-40CA-9748-44C177238FC2";
paths = (
{
closed = 1;
nodes = (
"547 68 LINE",
"396 220 LINE",
"547 372 LINE",
"487 432 LINE",
"335 281 LINE",
"183 432 LINE",
"123 372 LINE",
"275 220 LINE",
"123 68 LINE",
"183 8 LINE",
"335 160 LINE",
"487 8 LINE"
);
}
);
width = 670;
}
);
leftKerningGroup = multiply;
note = multiply;
rightKerningGroup = multiply;
unicode = 00D7;
},
{
glyphname = divide;
lastChange = "2016-09-19 08:18:48 +0000";
layers = (
{
layerId = "09A7EFDD-D551-40CA-9748-44C177238FC2";
paths = (
{
closed = 1;
nodes = (
"376 360 OFFCURVE",
"402 384 OFFCURVE",
"402 415 CURVE SMOOTH",
"402 447 OFFCURVE",
"376 471 OFFCURVE",
"345 471 CURVE SMOOTH",
"313 471 OFFCURVE",
"288 447 OFFCURVE",
"288 415 CURVE SMOOTH",
"288 384 OFFCURVE",
"313 360 OFFCURVE",
"345 360 CURVE SMOOTH"
);
},
{
closed = 1;
nodes = (
"111 269 LINE",
"111 184 LINE",
"578 184 LINE",
"578 269 LINE"
);
},
{
closed = 1;
nodes = (
"376 -15 OFFCURVE",
"402 9 OFFCURVE",
"402 40 CURVE SMOOTH",
"402 72 OFFCURVE",
"376 96 OFFCURVE",
"345 96 CURVE SMOOTH",
"313 96 OFFCURVE",
"288 72 OFFCURVE",
"288 40 CURVE SMOOTH",
"288 9 OFFCURVE",
"313 -15 OFFCURVE",
"345 -15 CURVE SMOOTH"
);
}
);
width = 689;
}
);
leftKerningGroup = emdash;
note = divide;
rightKerningGroup = emdash;
unicode = 00F7;
},
{
glyphname = equal;
lastChange = "2016-09-19 08:17:44 +0000";
layers = (
{
layerId = "09A7EFDD-D551-40CA-9748-44C177238FC2";
paths = (
{
closed = 1;
nodes = (
"593 280 LINE",
"593 366 LINE",
"111 366 LINE",
"111 280 LINE"
);
},
{
closed = 1;
nodes = (
"593 84 LINE",
"593 169 LINE",
"111 169 LINE",
"111 84 LINE"
);
}
);
width = 703;
}
);
leftKerningGroup = equal;
note = equal;
rightKerningGroup = equal;
unicode = 003D;
},
{
glyphname = greater;
lastChange = "2016-09-19 08:17:49 +0000";
layers = (
{
layerId = "09A7EFDD-D551-40CA-9748-44C177238FC2";
paths = (
{
closed = 1;
nodes = (
"496 157 LINE",
"496 250 LINE",
"74 447 LINE",
"74 354 LINE",
"394 203 LINE",
"74 52 LINE",
"74 -40 LINE"
);
}
);
width = 549;
}
);
note = greater;
rightKerningGroup = greater;
unicode = 003E;
},
{
glyphname = less;
lastChange = "2016-09-19 08:17:39 +0000";
layers = (
{
layerId = "09A7EFDD-D551-40CA-9748-44C177238FC2";
paths = (
{
closed = 1;
nodes = (
"476 447 LINE",
"54 250 LINE",
"54 157 LINE",
"476 -40 LINE",
"476 52 LINE",
"155 203 LINE",
"476 354 LINE"
);
}
);
width = 549;
}
);
leftKerningGroup = less;
note = less;
rightKerningGroup = less;
unicode = 003C;
},
{
glyphname = plusminus;
lastChange = "2016-09-19 08:18:30 +0000";
layers = (
{
layerId = "09A7EFDD-D551-40CA-9748-44C177238FC2";
paths = (
{
closed = 1;
nodes = (
"578 223 LINE",
"578 308 LINE",
"389 308 LINE",
"389 457 LINE",
"301 457 LINE",
"301 308 LINE",
"111 308 LINE",
"111 223 LINE",
"301 223 LINE",
"301 75 LINE",
"389 75 LINE",
"389 223 LINE"
);
},
{
closed = 1;
nodes = (
"578 26 LINE",
"111 26 LINE",
"111 -60 LINE",
"578 -60 LINE"
);
}
);
width = 689;
}
);
note = plusminus;
rightKerningGroup = zero.osf;
unicode = 00B1;
},
{
glyphname = asciitilde;
lastChange = "2016-10-13 05:31:15 +0000";
layers = (
{
layerId = "09A7EFDD-D551-40CA-9748-44C177238FC2";
paths = (
{
closed = 1;
nodes = (
"349 300 LINE",
"349 263 OFFCURVE",
"320 241 OFFCURVE",
"283 265 CURVE SMOOTH",
"223 304 LINE",
"161 341 OFFCURVE",
"53 317 OFFCURVE",
"53 195 CURVE",
"134 195 LINE",
"134 231 OFFCURVE",
"164 252 OFFCURVE",
"200 229 CURVE SMOOTH",
"260 190 LINE",
"323 153 OFFCURVE",
"430 177 OFFCURVE",
"430 300 CURVE"
);
}
);
width = 500;
}
);
note = asciitilde;
rightKerningGroup = zero.osf;
unicode = 007E;
},
{
glyphname = percent;
lastChange = "2016-10-13 05:33:47 +0000";
layers = (
{
layerId = "09A7EFDD-D551-40CA-9748-44C177238FC2";
paths = (
{
closed = 1;
nodes = (
"99 398 OFFCURVE",
"43 346 OFFCURVE",
"43 271 CURVE SMOOTH",
"43 195 OFFCURVE",
"99 142 OFFCURVE",
"172 142 CURVE SMOOTH",
"243 142 OFFCURVE",
"299 195 OFFCURVE",
"299 271 CURVE SMOOTH",
"299 346 OFFCURVE",
"243 398 OFFCURVE",
"172 398 CURVE SMOOTH"
);
},
{
closed = 1;
nodes = (
"231 -65 LINE",
"536 388 LINE",
"457 388 LINE",
"151 -65 LINE"
);
},
{
closed = 1;
nodes = (
"134 203 OFFCURVE",
"103 231 OFFCURVE",
"103 271 CURVE SMOOTH",
"103 311 OFFCURVE",
"134 340 OFFCURVE",
"171 340 CURVE SMOOTH",
"207 340 OFFCURVE",
"237 311 OFFCURVE",
"237 271 CURVE SMOOTH",
"237 231 OFFCURVE",
"207 203 OFFCURVE",
"171 203 CURVE SMOOTH"
);
},
{
closed = 1;
nodes = (
"452 180 OFFCURVE",
"395 128 OFFCURVE",
"395 53 CURVE SMOOTH",
"395 -23 OFFCURVE",
"452 -75 OFFCURVE",
"523 -75 CURVE SMOOTH",
"597 -75 OFFCURVE",
"652 -23 OFFCURVE",
"652 53 CURVE SMOOTH",
"652 128 OFFCURVE",
"597 180 OFFCURVE",
"523 180 CURVE SMOOTH"
);
},
{
closed = 1;
nodes = (
"487 -18 OFFCURVE",
"455 13 OFFCURVE",
"455 53 CURVE SMOOTH",
"455 94 OFFCURVE",
"487 124 OFFCURVE",
"523 124 CURVE SMOOTH",
"561 124 OFFCURVE",
"593 94 OFFCURVE",
"593 53 CURVE",
"593 13 OFFCURVE",
"561 -18 OFFCURVE",
"523 -18 CURVE SMOOTH"
);
}
);
width = 700;
}
);
leftKerningGroup = percent;
note = percent;
rightKerningGroup = percent;
unicode = 0025;
},
{
glyphname = arrowup.ss05;
lastChange = "2016-09-19 07:36:37 +0000";
layers = (
{
layerId = "09A7EFDD-D551-40CA-9748-44C177238FC2";
paths = (
{
closed = 1;
nodes = (
"449 340 LINE",
"392 397 LINE",
"194 593 LINE",
"138 537 LINE",
"335 340 LINE",
"139 144 LINE",
"196 87 LINE"
);
}
);
width = 563;
}
);
note = arrowup.ss05;
rightKerningGroup = zero.osf;
},
{
glyphname = arrowright.ss05;
lastChange = "2016-09-19 07:36:37 +0000";
layers = (
{
layerId = "09A7EFDD-D551-40CA-9748-44C177238FC2";
paths = (
{
closed = 1;
nodes = (
"228 340 LINE",
"426 537 LINE",
"369 593 LINE",
"171 397 LINE",
"114 340 LINE",
"368 87 LINE",
"424 144 LINE"
);
}
);
width = 570;
}
);
note = arrowright.ss05;
rightKerningGroup = zero.osf;
},
{
glyphname = arrowdown.ss05;
lastChange = "2016-09-19 07:36:37 +0000";
layers = (
{
layerId = "09A7EFDD-D551-40CA-9748-44C177238FC2";
paths = (
{
closed = 1;
nodes = (
"600 403 LINE",
"543 460 LINE",
"347 262 LINE",
"150 461 LINE",
"94 404 LINE",
"291 206 LINE",
"347 150 LINE"
);
}
);
width = 693;
}
);
note = arrowdown.ss05;
rightKerningGroup = zero.osf;
},
{
glyphname = arrowleft.ss05;
lastChange = "2016-09-19 07:36:37 +0000";
layers = (
{
layerId = "09A7EFDD-D551-40CA-9748-44C177238FC2";
paths = (
{
closed = 1;
nodes = (
"543 153 LINE",
"600 210 LINE",
"347 463 LINE",
"291 407 LINE",
"94 209 LINE",
"150 152 LINE",
"347 351 LINE"
);
}
);
width = 693;
}
);
note = arrowleft.ss05;
rightKerningGroup = zero.osf;
},
{
glyphname = at;
lastChange = "2016-09-19 08:17:54 +0000";
layers = (
{
layerId = "09A7EFDD-D551-40CA-9748-44C177238FC2";
paths = (
{
closed = 1;
nodes = (
"690 324 LINE",
"608 324 LINE",
"608 289 LINE",
"575 318 OFFCURVE",
"530 336 OFFCURVE",
"479 336 CURVE SMOOTH",
"367 336 OFFCURVE",
"280 250 OFFCURVE",
"280 133 CURVE SMOOTH",
"280 18 OFFCURVE",
"367 -69 OFFCURVE",
"479 -69 CURVE SMOOTH",
"541 -69 OFFCURVE",
"594 -43 OFFCURVE",
"629 0 CURVE",
"650 -40 OFFCURVE",
"688 -67 OFFCURVE",
"759 -67 CURVE SMOOTH",
"875 -67 OFFCURVE",
"923 27 OFFCURVE",
"923 147 CURVE SMOOTH",
"923 381 OFFCURVE",
"740 554 OFFCURVE",
"501 554 CURVE SMOOTH",
"263 554 OFFCURVE",
"71 376 OFFCURVE",
"71 139 CURVE SMOOTH",
"71 -100 OFFCURVE",
"264 -276 OFFCURVE",
"498 -276 CURVE SMOOTH",
"595 -276 OFFCURVE",
"688 -246 OFFCURVE",
"762 -189 CURVE",
"724 -132 LINE",
"660 -182 OFFCURVE",
"580 -210 OFFCURVE",
"497 -210 CURVE SMOOTH",
"304 -210 OFFCURVE",
"141 -60 OFFCURVE",
"141 139 CURVE SMOOTH",
"141 335 OFFCURVE",
"303 488 OFFCURVE",
"501 488 CURVE SMOOTH",
"699 488 OFFCURVE",
"855 340 OFFCURVE",
"855 145 CURVE SMOOTH",
"855 59 OFFCURVE",
"823 2 OFFCURVE",
"759 2 CURVE SMOOTH",
"712 2 OFFCURVE",
"690 36 OFFCURVE",
"690 102 CURVE SMOOTH"
);
},
{
closed = 1;
nodes = (
"425 5 OFFCURVE",
"364 54 OFFCURVE",
"364 134 CURVE SMOOTH",
"364 214 OFFCURVE",
"426 263 OFFCURVE",
"492 263 CURVE SMOOTH",
"535 263 OFFCURVE",
"579 242 OFFCURVE",
"608 198 CURVE",
"608 120 LINE SMOOTH",
"608 104 OFFCURVE",
"609 88 OFFCURVE",
"610 73 CURVE",
"580 24 OFFCURVE",
"533 5 OFFCURVE",
"492 5 CURVE SMOOTH"
);
}
);
width = 994;
}
);
leftKerningGroup = C;
note = at;
rightKerningGroup = zero.osf;
unicode = 0040;
},
{
glyphname = ampersand;
lastChange = "2016-09-19 08:15:59 +0000";
layers = (
{
layerId = "09A7EFDD-D551-40CA-9748-44C177238FC2";
paths = (
{
closed = 1;
nodes = (
"580 -100 LINE",
"702 -100 LINE",
"555 35 LINE",
"561 44 LINE",
"690 239 LINE",
"594 239 LINE",
"494 91 LINE",
"374 201 LINE SMOOTH",
"269 297 OFFCURVE",
"213 343 OFFCURVE",
"213 409 CURVE SMOOTH",
"213 471 OFFCURVE",
"258 513 OFFCURVE",
"320 513 CURVE SMOOTH",
"379 513 OFFCURVE",
"422 476 OFFCURVE",
"431 407 CURVE",
"523 407 LINE",
"510 523 OFFCURVE",
"434 595 OFFCURVE",
"321 595 CURVE SMOOTH",
"205 595 OFFCURVE",
"118 519 OFFCURVE",
"118 411 CURVE SMOOTH",
"118 363 OFFCURVE",
"136 323 OFFCURVE",
"175 277 CURVE",
"97 243 OFFCURVE",
"44 177 OFFCURVE",
"44 91 CURVE SMOOTH",
"44 -30 OFFCURVE",
"142 -114 OFFCURVE",
"289 -114 CURVE SMOOTH",
"373 -114 OFFCURVE",
"443 -84 OFFCURVE",
"501 -28 CURVE"
);
},
{
closed = 1;
nodes = (
"199 -32 OFFCURVE",
"134 23 OFFCURVE",
"134 92 CURVE SMOOTH",
"134 149 OFFCURVE",
"173 193 OFFCURVE",
"232 218 CURVE",
"250 200 OFFCURVE",
"271 181 OFFCURVE",
"294 160 CURVE SMOOTH",
"440 27 LINE",
"397 -11 OFFCURVE",
"345 -32 OFFCURVE",
"290 -32 CURVE SMOOTH"
);
}
);
width = 726;
}
);
leftKerningGroup = ampersand;
note = ampersand;
rightKerningGroup = ampersand;
unicode = 0026;
},
{
glyphname = bar;
lastChange = "2016-09-19 08:18:05 +0000";
layers = (
{
layerId = "09A7EFDD-D551-40CA-9748-44C177238FC2";
paths = (
{
closed = 1;
nodes = (
"201 630 LINE",
"114 630 LINE",
"114 -260 LINE",
"201 -260 LINE"
);
}
);
width = 315;
}
);
leftKerningGroup = B;
note = bar;
rightKerningGroup = zero.osf;
unicode = 007C;
},
{
glyphname = at.case;
lastChange = "2016-09-19 07:36:37 +0000";
layers = (
{
layerId = "09A7EFDD-D551-40CA-9748-44C177238FC2";
paths = (
{
closed = 1;
nodes = (
"690 494 LINE",
"608 494 LINE",
"608 459 LINE",
"575 488 OFFCURVE",
"530 506 OFFCURVE",
"479 506 CURVE SMOOTH",
"367 506 OFFCURVE",
"280 420 OFFCURVE",
"280 303 CURVE SMOOTH",
"280 188 OFFCURVE",
"367 101 OFFCURVE",
"479 101 CURVE SMOOTH",
"541 101 OFFCURVE",
"594 127 OFFCURVE",
"629 170 CURVE",
"650 130 OFFCURVE",
"688 103 OFFCURVE",
"759 103 CURVE SMOOTH",
"875 103 OFFCURVE",
"923 197 OFFCURVE",
"923 317 CURVE SMOOTH",
"923 551 OFFCURVE",
"740 724 OFFCURVE",
"501 724 CURVE SMOOTH",
"263 724 OFFCURVE",
"71 546 OFFCURVE",
"71 309 CURVE SMOOTH",
"71 70 OFFCURVE",
"264 -106 OFFCURVE",
"498 -106 CURVE SMOOTH",
"595 -106 OFFCURVE",
"688 -76 OFFCURVE",
"762 -19 CURVE",
"724 38 LINE",
"660 -12 OFFCURVE",
"580 -40 OFFCURVE",
"497 -40 CURVE SMOOTH",
"304 -40 OFFCURVE",
"141 110 OFFCURVE",
"141 309 CURVE SMOOTH",
"141 505 OFFCURVE",
"303 658 OFFCURVE",
"501 658 CURVE SMOOTH",
"699 658 OFFCURVE",
"855 510 OFFCURVE",
"855 315 CURVE SMOOTH",
"855 229 OFFCURVE",
"823 172 OFFCURVE",
"759 172 CURVE SMOOTH",
"712 172 OFFCURVE",
"690 206 OFFCURVE",
"690 272 CURVE SMOOTH"
);
},
{
closed = 1;
nodes = (
"425 175 OFFCURVE",
"364 224 OFFCURVE",
"364 304 CURVE SMOOTH",
"364 384 OFFCURVE",
"426 433 OFFCURVE",
"492 433 CURVE SMOOTH",
"535 433 OFFCURVE",
"579 412 OFFCURVE",
"608 368 CURVE",
"608 290 LINE SMOOTH",
"608 274 OFFCURVE",
"609 258 OFFCURVE",
"610 243 CURVE",
"580 194 OFFCURVE",
"533 175 OFFCURVE",
"492 175 CURVE SMOOTH"
);
}
);
width = 994;
}
);
leftKerningGroup = C;
note = at.case;
rightKerningGroup = C;
},
{
glyphname = bar.case;
lastChange = "2016-09-19 07:36:37 +0000";
layers = (
{
layerId = "09A7EFDD-D551-40CA-9748-44C177238FC2";
paths = (
{
closed = 1;
nodes = (
"201 730 LINE",
"114 730 LINE",
"114 -47 LINE",
"201 -47 LINE"
);
}
);
width = 315;
}
);
leftKerningGroup = B;
note = bar.case;
rightKerningGroup = H;
},
{
glyphname = uni0326;
lastChange = "2016-10-13 05:30:55 +0000";
layers = (
{
layerId = "09A7EFDD-D551-40CA-9748-44C177238FC2";
paths = (
{
closed = 1;
nodes = (
"198 -227 LINE",
"255 -227 LINE",
"341 -46 LINE",
"242 -46 LINE"
);
}
